<svg width="31" height="31" viewBox="0 0 31 31" fill="none" xmlns="http://www.w3.org/2000/svg">
<rect x="0.289062" y="0.0918274" width="30.6158" height="30.6158" rx="9.56743" fill="#EA5A06" fill-opacity="0.1"/>
<g clip-path="url(#clip0_316_9116)">
<path d="M12.4932 17.5293C12.1983 17.5293 11.979 17.3205 11.979 17.0445C11.979 16.7684 12.1983 16.5521 12.4932 16.5521H18.4449C18.7323 16.5521 18.9516 16.7684 18.9516 17.0445C18.9516 17.3205 18.7323 17.5293 18.4449 17.5293H12.4932ZM12.4932 20.3563C12.1983 20.3563 11.979 20.1475 11.979 19.8715C11.979 19.5955 12.1983 19.3792 12.4932 19.3792H18.4449C18.7323 19.3792 18.9516 19.5955 18.9516 19.8715C18.9516 20.1475 18.7323 20.3563 18.4449 20.3563H12.4932ZM11.442 23.3922H19.4734C21.0389 23.3922 21.8179 22.609 21.8179 21.0575V14.2846H16.3426C15.3746 14.2846 14.9133 13.8295 14.9133 12.8748V7.39972H11.442C9.88416 7.39972 9.09766 8.1904 9.09766 9.74191V21.0575C9.09766 22.6165 9.8766 23.3922 11.442 23.3922ZM16.3653 13.2626H21.7271C21.6817 12.9568 21.4624 12.6585 21.0994 12.293L16.9325 8.10834C16.577 7.7503 16.2669 7.53398 15.9493 7.48177V12.8599C15.9493 13.1284 16.0854 13.2626 16.3653 13.2626Z" fill="#EA5A06"/>
</g>
<defs>
<clipPath id="clip0_316_9116">
<rect width="13" height="16" fill="white" transform="translate(9.09766 7.39972)"/>
</clipPath>
</defs>
</svg>
